<?xml version="1.0" encoding="utf-8"?>
<!-- Generator: Adobe Illustrator 22.0.1, SVG Export Plug-In . SVG Version: 6.00 Build 0)  -->
<svg version="1.1" id="Layer_1" xmlns="http://www.w3.org/2000/svg" xmlns:xlink="http://www.w3.org/1999/xlink" x="0px" y="0px"
	 viewBox="0 0 40 40" style="enable-background:new 0 0 40 40;" xml:space="preserve">
<style type="text/css">
	.st0{fill:#0072C6;}
	.st1{fill:#231F20;}
	.st2{fill:#FFFFFF;}
	.st3{opacity:0.3;}
	.st4{fill:none;}
</style>
<rect class="st0" width="40" height="40"/>
<g>
	<g>
		<circle class="st2" cx="19.5" cy="18.5" r="2.5"/>
		<path class="st2" d="M26.6,16.1c-1-3-3.8-5.1-7.1-5.1c-3.7,0-6.8,2.7-7.4,6.3C9.7,18.1,8,20.3,8,23c0,3.3,2.7,6,6,6
			c2.1,0,3.9-1.1,5-2.7v-4.3c-0.8-0.1-1.6-0.5-2.1-1.1l-0.5,0.5c0.3,0.5,0.6,1.1,0.6,1.7c0,1.7-1.3,3-3,3s-3-1.3-3-3s1.3-3,3-3
			c0.6,0,1.2,0.2,1.7,0.6l0.6-0.6C16.1,19.5,16,19,16,18.5c0-1.9,1.6-3.5,3.5-3.5s3.5,1.6,3.5,3.5c0,0.5-0.1,1-0.3,1.4l1.1,0.8
			c0.1-0.1,0.2-0.2,0.3-0.3c0.3-0.2,0.6-0.3,0.9-0.4c0.2,0,0.3-0.1,0.5-0.1c1.4,0,2.5,1.1,2.5,2.5c0,1.4-1.1,2.5-2.5,2.5
			c-0.2,0-0.3,0-0.5-0.1c-0.3-0.1-0.6-0.2-0.9-0.4c-0.7-0.4-1.1-1.2-1.1-2.1c0-0.4,0.1-0.7,0.2-1l-1.1-0.8c-0.5,0.6-1.3,1.1-2.2,1.2
			v4c0,0,0,0,0,0c1.2,1.8,3.2,3,5.5,3c3.6,0,6.5-2.9,6.5-6.5C32,19.3,29.7,16.6,26.6,16.1z"/>
		<circle class="st2" cx="14" cy="23" r="2"/>
	</g>
</g>
</svg>
