<?xml version="1.0" encoding="utf-8"?>
<!-- Generator: Adobe Illustrator 22.0.1, SVG Export Plug-In . SVG Version: 6.00 Build 0)  -->
<svg version="1.1" id="Layer_1" xmlns="http://www.w3.org/2000/svg" xmlns:xlink="http://www.w3.org/1999/xlink" x="0px" y="0px"
	 viewBox="0 0 255 255" style="enable-background:new 0 0 255 255;" xml:space="preserve">
<style type="text/css">
	.st0{fill:#0072C6;}
	.st1{fill:#231F20;}
	.st2{fill:#FFFFFF;}
	.st3{opacity:0.3;}
	.st4{fill:none;}
</style>
<rect class="st0" width="255" height="255"/>
<g>
	<g>
		<circle class="st2" cx="126.2" cy="123.5" r="6.7"/>
		<path class="st2" d="M145.1,117.1c-2.7-7.9-10.1-13.6-18.9-13.6c-10,0-18.2,7.3-19.7,16.8c-6.4,2.1-10.9,8.1-10.9,15.2
			c0,8.8,7.2,16,16,16c5.6,0,10.5-2.9,13.3-7.2v-11.6c-2.2-0.3-4.2-1.4-5.6-3l-1.2,1.2c0.9,1.3,1.5,2.9,1.5,4.6c0,4.4-3.6,8-8,8
			s-8-3.6-8-8s3.6-8,8-8c1.7,0,3.3,0.6,4.6,1.5l1.6-1.6c-0.6-1.2-0.9-2.5-0.9-3.9c0-5.2,4.2-9.3,9.3-9.3c5.2,0,9.3,4.2,9.3,9.3
			c0,1.3-0.3,2.6-0.8,3.7l2.9,2.1c0.3-0.2,0.5-0.5,0.8-0.7c0.7-0.5,1.5-0.8,2.4-1c0.4-0.1,0.9-0.1,1.3-0.1c3.7,0,6.7,3,6.7,6.7
			c0,3.7-3,6.7-6.7,6.7c-0.5,0-0.9,0-1.3-0.1c-0.9-0.2-1.7-0.5-2.4-1c-1.8-1.2-2.9-3.2-2.9-5.5c0-1,0.2-1.9,0.6-2.7l-2.8-2
			c-1.4,1.7-3.5,2.9-5.8,3.2v10.7c0,0,0,0,0,0.1c3.1,4.8,8.5,8.1,14.6,8.1c9.6,0,17.3-7.8,17.3-17.3
			C159.5,125.6,153.3,118.5,145.1,117.1z"/>
		<circle class="st2" cx="111.5" cy="135.5" r="5.3"/>
	</g>
</g>
</svg>
