<?xml version="1.0" encoding="utf-8"?>
<!-- Generator: Adobe Illustrator 22.0.1, SVG Export Plug-In . SVG Version: 6.00 Build 0)  -->
<svg version="1.1" id="Layer_1" xmlns="http://www.w3.org/2000/svg" xmlns:xlink="http://www.w3.org/1999/xlink" x="0px" y="0px"
	 viewBox="0 0 24 18" style="enable-background:new 0 0 24 18;" xml:space="preserve">
<style type="text/css">
	.st0{fill:#0072C6;}
	.st1{fill:#231F20;}
	.st2{fill:#FFFFFF;}
	.st3{opacity:0.3;}
	.st4{fill:none;}
</style>
<g>
	<g>
		<circle class="st0" cx="11.5" cy="7.5" r="2.5"/>
		<path class="st0" d="M18.6,5.1c-1-3-3.8-5.1-7.1-5.1C7.8,0,4.7,2.7,4.1,6.3C1.7,7.1,0,9.3,0,12c0,3.3,2.7,6,6,6
			c2.1,0,3.9-1.1,5-2.7v-4.3c-0.8-0.1-1.6-0.5-2.1-1.1l-0.5,0.5C8.8,10.8,9,11.4,9,12c0,1.7-1.3,3-3,3s-3-1.3-3-3s1.3-3,3-3
			c0.6,0,1.2,0.2,1.7,0.6L8.3,9C8.1,8.5,8,8,8,7.5C8,5.6,9.6,4,11.5,4S15,5.6,15,7.5c0,0.5-0.1,1-0.3,1.4l1.1,0.8
			c0.1-0.1,0.2-0.2,0.3-0.3c0.3-0.2,0.6-0.3,0.9-0.4C17.2,9,17.3,9,17.5,9c1.4,0,2.5,1.1,2.5,2.5c0,1.4-1.1,2.5-2.5,2.5
			c-0.2,0-0.3,0-0.5-0.1c-0.3-0.1-0.6-0.2-0.9-0.4c-0.7-0.4-1.1-1.2-1.1-2.1c0-0.4,0.1-0.7,0.2-1l-1.1-0.8c-0.5,0.6-1.3,1.1-2.2,1.2
			v4c0,0,0,0,0,0c1.2,1.8,3.2,3,5.5,3c3.6,0,6.5-2.9,6.5-6.5C24,8.3,21.7,5.6,18.6,5.1z"/>
		<circle class="st0" cx="6" cy="12" r="2"/>
	</g>
	<g class="st3">
		<path class="st2" d="M6.1,8.3C6.7,4.7,9.8,2,13.5,2c1.6,0,3,0.5,4.2,1.3c-1.3-2-3.6-3.3-6.2-3.3C7.8,0,4.7,2.7,4.1,6.3
			C1.7,7.1,0,9.3,0,12c0,2.2,1.2,4.1,2.9,5.1C2.3,16.2,2,15.1,2,14C2,11.3,3.7,9.1,6.1,8.3z"/>
	</g>
</g>
</svg>
