<?xml version="1.0" encoding="utf-8"?>
<!-- Generator: Adobe Illustrator 22.0.1, SVG Export Plug-In . SVG Version: 6.00 Build 0)  -->
<svg version="1.1" id="Layer_1" xmlns="http://www.w3.org/2000/svg" xmlns:xlink="http://www.w3.org/1999/xlink" x="0px" y="0px"
	 viewBox="0 0 50 50" style="enable-background:new 0 0 50 50;" xml:space="preserve">
<style type="text/css">
	.st0{fill:#0072C6;}
	.st1{fill:#231F20;}
	.st2{fill:#FFFFFF;}
	.st3{opacity:0.3;}
	.st4{fill:none;}
</style>
<path class="st1" d="M38.2,17.2C36.2,11.3,30.6,7,24,7c-7.5,0-13.7,5.5-14.8,12.6C4.4,21.2,1,25.7,1,31c0,6.6,5.4,12,12,12
	c4.5,0,8.3-2.4,10.4-6c0.3-0.5,0.6-1,0.8-1.6c0.2,0.5,0.5,1.1,0.9,1.6c2.3,3.6,6.4,6.1,11,6.1c7.2,0,13-5.8,13-13
	C49,23.6,44.3,18.2,38.2,17.2z M19,22c0-2.8,2.2-5,5-5s5,2.2,5,5c0,2.8-2.2,5-5,5S19,24.8,19,22z M36,41c-3.6,0-6.7-1.7-8.8-4.4
	c-0.4-0.6-0.8-1.2-1.1-1.8c-0.6-1.2-0.9-2.5-1.1-3.8H25v-2.1c1.7-0.3,3.3-1.1,4.3-2.4l2.1,1.5c-0.3,0.6-0.4,1.3-0.4,2
	c0,2.8,2.2,5,5,5c2.8,0,5-2.2,5-5c0-2.8-2.2-5-5-5c-1.3,0-2.5,0.5-3.4,1.3l-2.2-1.6C30.8,23.9,31,23,31,22c0-3.9-3.1-7-7-7
	s-7,3.1-7,7c0,1,0.2,2,0.7,2.9l-1.2,1.2c-1-0.7-2.2-1.1-3.5-1.1c-3.3,0-6,2.7-6,6s2.7,6,6,6s6-2.7,6-6c0-1.3-0.4-2.5-1.1-3.5
	l0.9-0.9c1.1,1.2,2.5,2,4.2,2.3V31c0,1.4-0.3,2.7-0.8,3.9c-0.3,0.7-0.6,1.3-1,1.9C19.4,39.3,16.4,41,13,41C7.5,41,3,36.5,3,31
	c0-4.1,2.5-7.6,6-9.2c0.6-0.3,1.3-0.5,2-0.6c0-0.7,0.1-1.4,0.3-2.1C12.6,13.3,17.8,9,24,9c5.4,0,10,3.3,12,8c0.3,0.7,0.5,1.3,0.6,2
	c0.7,0,1.4,0.2,2.1,0.3C43.5,20.6,47,24.9,47,30C47,36.1,42.1,41,36,41z M17,31c0,2.2-1.8,4-4,4s-4-1.8-4-4s1.8-4,4-4S17,28.8,17,31
	z"/>
<rect class="st4" width="50" height="50"/>
</svg>
