<?xml version="1.0" encoding="utf-8"?>
<!-- Generator: Adobe Illustrator 22.0.1, SVG Export Plug-In . SVG Version: 6.00 Build 0)  -->
<svg version="1.1" id="Layer_1" xmlns="http://www.w3.org/2000/svg" xmlns:xlink="http://www.w3.org/1999/xlink" x="0px" y="0px"
	 viewBox="0 0 50 50" style="enable-background:new 0 0 50 50;" xml:space="preserve">
<style type="text/css">
	.st0{fill:#0072C6;}
	.st1{fill:#231F20;}
	.st2{fill:#FFFFFF;}
	.st3{opacity:0.3;}
	.st4{fill:none;}
</style>
<g>
	<g>
		<circle class="st0" cx="24" cy="22" r="5"/>
		<path class="st0" d="M38.2,17.2C36.2,11.3,30.6,7,24,7c-7.5,0-13.7,5.5-14.8,12.6C4.4,21.2,1,25.7,1,31c0,6.6,5.4,12,12,12
			c4.2,0,7.9-2.2,10-5.4v-8.7c-1.7-0.2-3.1-1.1-4.2-2.3l-0.9,0.9c0.7,1,1.1,2.2,1.1,3.5c0,3.3-2.7,6-6,6s-6-2.7-6-6s2.7-6,6-6
			c1.3,0,2.5,0.4,3.5,1.1l1.2-1.2C17.2,24,17,23,17,22c0-3.9,3.1-7,7-7s7,3.1,7,7c0,1-0.2,1.9-0.6,2.8l2.2,1.6
			c0.2-0.2,0.4-0.4,0.6-0.5c0.5-0.4,1.1-0.6,1.8-0.8c0.3-0.1,0.7-0.1,1-0.1c2.8,0,5,2.2,5,5c0,2.8-2.2,5-5,5c-0.3,0-0.7,0-1-0.1
			c-0.7-0.1-1.3-0.4-1.8-0.8C31.9,33.2,31,31.7,31,30c0-0.7,0.2-1.4,0.5-2l-2.1-1.5c-1.1,1.3-2.6,2.2-4.3,2.4v8c0,0,0,0,0,0
			c2.3,3.6,6.4,6.1,11,6.1c7.2,0,13-5.8,13-13C49,23.6,44.3,18.2,38.2,17.2z"/>
		<circle class="st0" cx="13" cy="31" r="4"/>
	</g>
	<g class="st3">
		<path class="st2" d="M13.2,23.6C14.3,16.5,20.5,11,28,11c3.1,0,6,1,8.4,2.6C33.7,9.6,29.2,7,24,7c-7.5,0-13.7,5.5-14.8,12.6
			C4.4,21.2,1,25.7,1,31c0,4.3,2.3,8.1,5.8,10.2C5.7,39.4,5,37.3,5,35C5,29.7,8.4,25.2,13.2,23.6z"/>
	</g>
</g>
<rect class="st4" width="50" height="50"/>
</svg>
