<?xml version="1.0" encoding="utf-8"?>
<!-- Generator: Adobe Illustrator 22.0.1, SVG Export Plug-In . SVG Version: 6.00 Build 0)  -->
<svg version="1.1" id="Layer_1" xmlns="http://www.w3.org/2000/svg" xmlns:xlink="http://www.w3.org/1999/xlink" x="0px" y="0px"
	 viewBox="0 0 24 18" style="enable-background:new 0 0 24 18;" xml:space="preserve">
<style type="text/css">
	.st0{fill:#0072C6;}
	.st1{fill:#231F20;}
	.st2{fill:#FFFFFF;}
	.st3{opacity:0.3;}
	.st4{fill:none;}
</style>
<path class="st1" d="M18.6,5.1c-1-3-3.8-5.1-7.1-5.1C7.8,0,4.7,2.7,4.1,6.3C1.7,7.1,0,9.3,0,12c0,3.3,2.7,6,6,6c2.2,0,4.2-1.2,5.2-3
	c0.1-0.3,0.3-0.5,0.4-0.8c0.1,0.3,0.3,0.5,0.4,0.8c1.2,1.8,3.2,3,5.5,3c3.6,0,6.5-2.9,6.5-6.5C24,8.3,21.7,5.6,18.6,5.1z M9,7.5
	C9,6.1,10.1,5,11.5,5S14,6.1,14,7.5c0,1.4-1.1,2.5-2.5,2.5S9,8.9,9,7.5z M17.5,17c-1.8,0-3.4-0.9-4.4-2.2c-0.2-0.3-0.4-0.6-0.6-0.9
	c-0.3-0.6-0.5-1.2-0.5-1.9h0v-1.1c0.9-0.1,1.6-0.6,2.2-1.2l1,0.7c-0.1,0.3-0.2,0.7-0.2,1c0,1.4,1.1,2.5,2.5,2.5
	c1.4,0,2.5-1.1,2.5-2.5c0-1.4-1.1-2.5-2.5-2.5c-0.7,0-1.3,0.3-1.7,0.7l-1.1-0.8C14.9,8.5,15,8,15,7.5C15,5.6,13.4,4,11.5,4
	S8,5.6,8,7.5C8,8,8.1,8.5,8.3,9L7.7,9.6C7.2,9.2,6.6,9,6,9c-1.7,0-3,1.3-3,3s1.3,3,3,3s3-1.3,3-3c0-0.6-0.2-1.2-0.6-1.7l0.5-0.5
	c0.5,0.6,1.3,1,2.1,1.1V12c0,0.7-0.1,1.3-0.4,1.9c-0.1,0.3-0.3,0.6-0.5,0.9C9.2,16.2,7.7,17,6,17c-2.8,0-5-2.2-5-5
	c0-2,1.2-3.8,3-4.6c0.3-0.1,0.7-0.3,1-0.3c0-0.4,0.1-0.7,0.1-1C5.8,3.2,8.4,1,11.5,1c2.7,0,5,1.7,6,4c0.1,0.3,0.2,0.7,0.3,1
	c0.4,0,0.7,0.1,1.1,0.2c2.4,0.6,4.1,2.8,4.1,5.3C23,14.5,20.5,17,17.5,17z M8,12c0,1.1-0.9,2-2,2s-2-0.9-2-2s0.9-2,2-2S8,10.9,8,12z
	"/>
</svg>
